<?xml version="1.0" standalone="no"?>
<!DOCTYPE svg PUBLIC "-//W3C//DTD SVG 20010904//EN"
 "http://www.w3.org/TR/2001/REC-SVG-20010904/DTD/svg10.dtd">
<svg version="1.0" xmlns="http://www.w3.org/2000/svg"
 width="640.000000pt" height="427.000000pt" viewBox="0 0 640.000000 427.000000"
 preserveAspectRatio="xMidYMid meet">

<g transform="translate(0.000000,427.000000) scale(0.100000,-0.100000)"
fill="#000000" stroke="none">
<path d="M0 2135 l0 -2135 3200 0 3200 0 0 2135 0 2135 -224 0 -225 0 -53 -32
c-29 -18 -55 -36 -58 -39 -3 -3 -12 -8 -20 -12 -8 -4 -31 -17 -52 -29 -20 -13
-60 -38 -90 -56 -79 -48 -90 -55 -125 -79 -17 -13 -36 -23 -40 -23 -5 0 -24
-13 -43 -30 -19 -16 -40 -29 -46 -30 -6 0 -19 -9 -29 -20 -10 -11 -24 -20 -31
-20 -7 0 -26 -11 -42 -25 -17 -14 -33 -25 -36 -25 -4 0 -23 -11 -44 -25 -48
-31 -147 -71 -237 -96 -88 -23 -228 -25 -333 -3 -71 15 -363 113 -457 154 -22
9 -62 26 -90 36 -60 22 -115 50 -173 87 -62 40 -55 61 33 99 39 16 84 35 100
43 17 7 64 27 105 45 41 17 89 38 107 46 17 8 36 14 41 14 6 0 14 5 17 10 4 7
-723 10 -2174 10 l-2181 0 0 -2135z m1519 1070 c25 8 51 -4 51 -22 0 -13 -10
-15 -56 -9 -68 8 -79 13 -63 32 8 10 16 11 30 3 11 -5 28 -8 38 -4z m786 -4
c10 -17 -11 -21 -31 -6 -18 14 -18 14 3 15 12 0 24 -4 28 -9z m765 -110 c8
-17 7 -20 -10 -18 -12 1 -20 8 -20 19 0 24 17 23 30 -1z m94 -11 c37 -14 32
-31 -7 -27 -40 5 -59 15 -52 28 8 12 27 12 59 -1z m69 -14 c3 -8 -1 -17 -9
-20 -23 -9 -24 -8 -24 14 0 23 25 27 33 6z m157 -21 c0 -8 -4 -15 -10 -15 -5
0 -10 7 -10 15 0 8 5 15 10 15 6 0 10 -7 10 -15z m-800 -7 c0 -4 -4 -8 -9 -8
-6 0 -12 4 -15 8 -3 5 1 9 9 9 8 0 15 -4 15 -9z m115 -8 c3 -5 1 -10 -4 -10
-6 0 -11 5 -11 10 0 6 2 10 4 10 3 0 8 -4 11 -10z m65 -12 c0 -4 -4 -10 -10
-13 -5 -3 -10 -2 -10 4 0 6 -7 8 -15 5 -8 -4 -15 -1 -15 5 0 6 11 10 25 9 14
-1 25 -6 25 -10z m26 -15 c-10 -10 -19 5 -10 18 6 11 8 11 12 0 2 -7 1 -15 -2
-18z m59 -3 c3 -6 -1 -7 -9 -4 -18 7 -21 14 -7 14 6 0 13 -4 16 -10z m88 1 c9
0 17 -6 17 -12 0 -5 -4 -8 -9 -4 -5 3 -12 1 -16 -5 -9 -14 -27 -1 -19 13 5 8
3 8 -7 0 -17 -17 -29 -16 -29 1 0 8 9 12 23 11 12 -1 30 -3 40 -4z m75 -26
c-3 -3 -9 2 -12 12 -6 14 -5 15 5 6 7 -7 10 -15 7 -18z m-403 0 c24 -1 48 -6
54 -9 23 -14 10 -25 -26 -22 -21 2 -48 4 -59 5 -13 0 -24 10 -27 21 -3 12 -1
18 5 14 5 -3 29 -7 53 -9z m470 5 c3 6 15 6 29 0 13 -5 27 -6 30 -3 3 4 6 1 6
-6 0 -7 5 -9 10 -6 6 3 10 1 10 -5 0 -8 -6 -9 -17 -4 -10 4 -39 7 -65 7 -34 0
-48 4 -48 14 0 10 5 11 19 3 13 -6 22 -7 26 0z m-388 -32 c-3 -8 -6 -5 -6 6
-1 11 2 17 5 13 3 -3 4 -12 1 -19z m36 2 c3 -11 3 -20 1 -20 -2 0 -8 9 -14 20
-6 11 -7 20 -2 20 6 0 12 -9 15 -20z m557 -14 c0 -2 -15 2 -34 8 -19 6 -32 14
-30 18 5 7 64 -17 64 -26z m-420 9 c19 -1 35 -3 35 -5 0 -1 20 -3 43 -5 24 -1
47 -7 52 -14 5 -10 9 -10 14 -2 9 14 26 4 26 -15 0 -11 -6 -13 -22 -8 -13 4
-26 12 -30 18 -5 8 -8 7 -8 -2 0 -9 -14 -11 -57 -6 -73 9 -97 12 -103 14 -3 1
-9 2 -14 1 -9 -2 -26 18 -26 31 0 4 12 4 28 1 15 -3 43 -6 62 -8z m194 -40
c-4 -8 -8 -15 -10 -15 -2 0 -4 7 -4 15 0 8 4 15 10 15 5 0 7 -7 4 -15z m66 -7
c0 -19 -2 -20 -10 -8 -13 19 -13 30 0 30 6 0 10 -10 10 -22z m98 -4 c23 -7 12
-24 -17 -24 -18 0 -31 6 -35 17 -6 15 -8 15 -16 3 -8 -13 -10 -12 -10 2 0 14
6 16 33 12 17 -3 38 -7 45 -10z m-573 -5 c6 -3 22 -5 38 -4 16 0 27 -4 27 -12
0 -7 -3 -12 -7 -12 -5 1 -10 0 -13 -1 -15 -6 -62 -5 -66 2 -3 4 -16 8 -29 8
-12 0 -25 6 -28 14 -4 11 3 14 31 13 20 -1 42 -5 47 -8z m635 1 c0 -5 -2 -10
-4 -10 -3 0 -8 5 -11 10 -3 6 -1 10 4 10 6 0 11 -4 11 -10z m-530 -26 c0 -8
-4 -12 -10 -9 -5 3 -10 13 -10 21 0 8 5 12 10 9 6 -3 10 -13 10 -21z m673 5
c9 0 17 -7 17 -14 0 -11 -6 -12 -25 -5 -13 5 -27 5 -30 1 -6 -11 -47 -2 -57
13 -5 7 -8 6 -8 -3 0 -11 -3 -11 -15 -1 -27 22 -16 27 43 18 31 -5 65 -9 75
-9z m-513 -23 c0 -19 0 -19 14 -1 13 18 14 18 25 -4 11 -20 10 -22 -14 -18
-15 2 -31 10 -36 18 -5 8 -9 9 -9 2 0 -18 -58 -13 -65 6 -5 12 -8 13 -14 2 -7
-10 -10 -9 -14 3 -5 14 2 16 53 14 52 -3 60 -6 60 -22z m626 11 c5 -3 28 -4
52 -3 23 1 42 -1 42 -6 0 -4 -6 -8 -14 -8 -8 0 -16 -5 -18 -10 -6 -18 -142 2
-146 21 -2 12 6 15 37 13 21 -1 43 -4 47 -7z m-553 -22 c4 -8 2 -17 -3 -20 -6
-4 -10 -4 -10 -1 0 2 -3 11 -6 20 -3 9 -2 16 4 16 5 0 12 -7 15 -15z m54 -17
c-3 -7 -5 -2 -5 12 0 14 2 19 5 13 2 -7 2 -19 0 -25z m37 7 c-4 -8 -8 -15 -10
-15 -2 0 -4 7 -4 15 0 8 4 15 10 15 5 0 7 -7 4 -15z m589 0 c4 -8 2 -17 -3
-20 -6 -4 -10 3 -10 14 0 25 6 27 13 6z m-513 -11 c0 -11 -8 -14 -27 -12 -39
4 -42 28 -4 28 21 0 31 -5 31 -16z m60 6 c0 -5 -7 -7 -15 -4 -8 4 -15 8 -15
10 0 2 7 4 15 4 8 0 15 -4 15 -10z m60 -20 c0 -11 -4 -20 -9 -20 -5 0 -7 9 -4
20 3 11 7 20 9 20 2 0 4 -9 4 -20z m-553 -2 c13 0 20 -5 17 -12 -4 -11 -39
-13 -121 -7 -14 0 -23 7 -23 17 0 14 7 16 53 9 28 -4 62 -7 74 -7z m682 -10
c2 -6 6 -5 11 2 6 10 14 9 38 -3 22 -11 32 -12 35 -3 2 6 7 8 11 5 12 -11 -5
-38 -21 -32 -8 3 -29 7 -47 8 -17 2 -31 4 -31 5 0 1 -14 3 -31 3 -17 1 -38 8
-46 15 -13 10 -17 10 -20 0 -3 -7 -7 -5 -11 6 -7 17 -3 18 50 11 32 -4 60 -11
62 -17z m-629 -14 c0 -8 -4 -12 -10 -9 -5 3 -10 13 -10 21 0 8 5 12 10 9 6 -3
10 -13 10 -21z m67 1 c8 -22 -6 -33 -17 -15 -13 20 -12 30 0 30 6 0 13 -7 17
-15z m33 -11 c0 -8 -4 -12 -10 -9 -5 3 -10 13 -10 21 0 8 5 12 10 9 6 -3 10
-13 10 -21z m103 -1 c5 -3 4 -10 -2 -16 -7 -7 -15 -6 -26 3 -8 7 -15 8 -15 3
0 -18 -45 -9 -48 9 -3 15 3 16 39 12 24 -3 47 -8 52 -11z m647 -3 c0 -9 3 -11
8 -5 7 9 82 16 82 8 0 -17 -32 -31 -61 -27 -19 3 -49 6 -68 7 -19 1 -36 8 -39
15 -3 10 -7 10 -18 1 -11 -9 -14 -8 -14 4 0 13 11 15 55 14 41 -2 55 -6 55
-17z m-593 -22 c-3 -7 -5 -2 -5 12 0 14 2 19 5 13 2 -7 2 -19 0 -25z m37 7
c-4 -8 -8 -15 -10 -15 -2 0 -4 7 -4 15 0 8 4 15 10 15 5 0 7 -7 4 -15z m74
-13 c3 -10 -4 -13 -24 -10 -15 2 -29 9 -32 16 -3 10 4 13 24 10 15 -2 29 -9
32 -16z m62 8 c0 -5 -4 -10 -9 -10 -6 0 -13 5 -16 10 -3 6 1 10 9 10 9 0 16
-4 16 -10z m550 -11 c0 -5 -4 -9 -10 -9 -5 0 -10 7 -10 16 0 8 5 12 10 9 6 -3
10 -10 10 -16z m-490 -9 c0 -11 -4 -20 -9 -20 -5 0 -7 9 -4 20 3 11 7 20 9 20
2 0 4 -9 4 -20z m-527 -4 c9 0 17 -6 17 -12 0 -13 -79 -24 -86 -12 -3 4 -16 8
-30 8 -14 0 -24 6 -24 14 0 11 11 13 53 9 28 -3 60 -6 70 -7z m564 -1 c9 -25
-4 -29 -17 -6 -7 15 -7 21 0 21 6 0 13 -7 17 -15z m27 -1 c10 -25 -1 -29 -14
-5 -6 12 -7 21 -1 21 5 0 12 -7 15 -16z m-534 -20 c0 -8 -4 -12 -10 -9 -5 3
-10 13 -10 21 0 8 5 12 10 9 6 -3 10 -13 10 -21z m600 10 c0 -8 -10 -14 -25
-14 -15 0 -25 6 -25 14 0 8 10 14 25 14 15 0 25 -6 25 -14z m57 -21 c-3 -10
-5 -4 -5 12 0 17 2 24 5 18 2 -7 2 -21 0 -30z m-17 11 c0 -17 -22 -14 -28 4
-2 7 3 12 12 12 9 0 16 -7 16 -16z m133 1 c10 -4 31 -5 47 -1 33 6 37 2 15
-20 -10 -11 -28 -14 -57 -10 -24 3 -55 5 -70 5 -20 1 -28 6 -28 19 0 13 8 17
37 16 21 -1 46 -5 56 -9z m-573 -21 c0 -12 -7 -25 -16 -28 -25 -10 -64 -7 -64
5 0 6 -9 8 -20 4 -14 -4 -20 -2 -20 9 0 9 -6 13 -14 10 -7 -3 -16 1 -19 9 -5
12 9 14 74 13 74 -1 79 -2 79 -22z m31 -1 c1 -17 2 -17 6 0 5 19 18 22 28 7 4
-6 11 -7 17 -4 6 4 14 0 19 -7 14 -22 11 -26 -18 -23 -16 1 -35 2 -44 3 -17 1
-34 41 -18 41 5 0 10 -8 10 -17z m129 -15 c0 -18 -2 -20 -9 -8 -6 8 -7 18 -5
22 9 14 14 9 14 -14z m530 -11 c0 -5 -4 -5 -10 -2 -5 3 -10 14 -10 23 0 15 2
15 10 2 5 -8 10 -19 10 -23z m-503 -9 c-3 -8 -6 -5 -6 6 -1 11 2 17 5 13 3 -3
4 -12 1 -19z m81 1 c2 -12 -4 -15 -28 -11 -38 5 -41 32 -3 29 16 -2 29 -9 31
-18z m57 11 c3 -5 -1 -10 -9 -10 -9 0 -16 5 -16 10 0 6 4 10 9 10 6 0 13 -4
16 -10z m-595 -14 c0 3 6 2 13 -3 6 -4 21 -6 32 -5 19 3 19 2 2 -12 -26 -20
-137 -9 -137 14 0 13 31 17 63 9 15 -4 27 -5 27 -3z m90 -22 c0 -8 -4 -14 -10
-14 -5 0 -10 9 -10 21 0 11 5 17 10 14 6 -3 10 -13 10 -21z m560 15 c0 -8 4
-8 13 -1 16 14 67 3 67 -14 0 -8 -8 -14 -17 -15 -12 -1 -10 -4 7 -9 24 -8 23
-8 -7 -9 -20 -1 -32 4 -30 10 1 6 -5 14 -13 16 -12 4 -12 3 -1 -5 19 -14 1
-20 -34 -11 -23 5 -25 7 -8 8 17 1 21 5 16 18 -4 11 -8 13 -11 5 -2 -7 -8 -10
-13 -6 -16 10 -10 24 11 24 11 0 20 -5 20 -11z m140 -19 c8 -15 8 -20 -3 -20
-7 0 -13 9 -14 20 -1 11 0 20 2 20 2 0 9 -9 15 -20z m31 3 c1 -17 2 -17 6 0 5
18 23 24 23 8 0 -5 14 -7 30 -5 34 6 37 0 15 -23 -11 -11 -26 -13 -50 -9 -19
4 -35 9 -35 11 0 2 -3 10 -6 19 -3 9 -1 16 5 16 6 0 12 -8 12 -17z m-607 -9
c4 -11 10 -13 19 -7 16 12 120 10 124 -3 5 -16 -37 -50 -45 -37 -4 6 -38 14
-77 17 -88 9 -105 14 -105 32 0 21 76 19 84 -2z m736 -26 c0 -5 -4 -8 -10 -8
-5 0 -10 10 -10 23 0 18 2 19 10 7 5 -8 10 -18 10 -22z m-1896 7 c3 -9 -1 -18
-9 -21 -23 -9 -50 0 -53 19 -3 13 3 17 26 17 18 0 32 -6 36 -15z m1336 -5 c8
-15 8 -20 -3 -20 -7 0 -13 9 -14 20 -1 11 0 20 2 20 2 0 9 -9 15 -20z m30 3
c0 -14 2 -15 9 -4 10 16 31 6 31 -15 0 -18 -38 -13 -51 7 -12 19 -11 29 1 29
6 0 10 -8 10 -17z m100 -14 c0 -11 -4 -17 -10 -14 -5 3 -10 13 -10 21 0 8 5
14 10 14 6 0 10 -9 10 -21z m-1423 5 c-3 -3 -12 -4 -19 -1 -8 3 -5 6 6 6 11 1
17 -2 13 -5z m1453 -19 c0 -8 -2 -15 -4 -15 -2 0 -6 7 -10 15 -3 8 -1 15 4 15
6 0 10 -7 10 -15z m24 3 c-5 -9 -2 -9 9 1 14 11 20 11 32 1 21 -18 9 -29 -22
-21 -27 7 -45 31 -23 31 6 0 8 -5 4 -12z m106 2 c0 -5 -4 -10 -9 -10 -6 0 -13
5 -16 10 -3 6 1 10 9 10 9 0 16 -4 16 -10z m95 -22 c6 -19 8 -20 12 -6 3 13
10 15 31 9 15 -5 33 -6 39 -4 7 3 16 -3 20 -13 6 -16 7 -16 14 2 7 18 8 18 8
-2 1 -23 -31 -43 -37 -25 -2 6 -23 11 -47 11 -35 0 -45 4 -50 20 -8 27 -23 25
-28 -2 -4 -20 -4 -19 -6 5 -1 34 33 38 44 5z m225 -14 c0 -24 -51 -37 -77 -21
-24 15 -13 24 32 25 25 1 45 -1 45 -4z m30 -24 c0 -11 -2 -20 -4 -20 -2 0 -6
9 -9 20 -3 11 -1 20 4 20 5 0 9 -9 9 -20z m-904 -126 c19 -3 37 -11 40 -16 12
-19 -16 -25 -74 -16 -31 5 -74 9 -94 9 -33 0 -56 18 -41 33 6 6 118 0 169 -10z
m194 -29 c0 -18 -6 -21 -47 -19 -109 3 -121 39 -14 39 55 0 61 -2 61 -20z m75
-16 c4 -11 5 -23 2 -25 -10 -11 -55 9 -60 25 -7 27 50 27 58 0z m63 -8 c3 -8
-1 -12 -9 -9 -7 2 -15 10 -17 17 -3 8 1 12 9 9 7 -2 15 -10 17 -17z m139 0
c22 -7 33 -6 36 2 3 7 9 1 15 -13 11 -27 6 -42 -7 -21 -6 8 -11 9 -15 3 -7
-12 -74 -6 -92 9 -7 6 -18 8 -24 4 -5 -3 -10 1 -10 9 0 18 46 22 97 7z m83
-23 c0 -16 -3 -19 -11 -11 -6 6 -8 16 -5 22 11 17 16 13 16 -11z m69 -21 c1
-5 -3 -5 -9 -2 -5 3 -10 16 -9 28 0 21 1 21 9 2 5 -11 9 -24 9 -28z m31 27 c0
-2 -7 -4 -15 -4 -8 0 -15 4 -15 10 0 5 7 7 15 4 8 -4 15 -8 15 -10z m-60 -14
c0 -13 -5 -18 -15 -14 -8 4 -15 12 -15 20 0 8 7 14 15 14 8 0 15 -9 15 -20z
m117 -22 c-3 -7 -5 -2 -5 12 0 14 2 19 5 13 2 -7 2 -19 0 -25z m106 0 c4 -15
1 -17 -21 -11 -15 4 -35 6 -44 6 -9 -1 -18 4 -21 10 -3 9 9 13 39 13 33 0 44
-4 47 -18z m52 2 c-3 -5 -1 -10 4 -10 6 0 11 4 11 8 0 4 20 8 45 8 37 0 45 -4
45 -18 0 -10 -4 -18 -10 -18 -5 0 -10 6 -10 13 0 9 -2 9 -8 0 -7 -12 -62 -10
-82 2 -13 8 -13 25 1 25 5 0 7 -4 4 -10z m163 -4 c19 3 32 1 32 -5 0 -6 -4
-11 -10 -11 -5 0 -10 -7 -10 -16 0 -11 -6 -14 -22 -8 -26 8 -38 22 -38 44 0
11 2 12 8 3 4 -7 20 -10 40 -7z m61 -29 c0 -21 -1 -21 -9 -2 -12 28 -12 37 0
30 6 -3 10 -16 9 -28z m34 -2 c4 -8 2 -17 -3 -20 -6 -4 -10 3 -10 14 0 25 6
27 13 6z m-1058 -119 c22 -2 50 -4 63 -5 12 0 22 -8 22 -16 0 -14 -17 -20 -50
-17 -8 1 -49 3 -90 5 -48 1 -83 8 -97 18 -34 23 -15 32 52 24 33 -3 78 -8 100
-9z m300 -29 c47 -3 81 -10 83 -16 3 -8 8 -8 15 -2 7 5 30 6 54 2 26 -5 46 -4
52 2 16 16 13 0 -4 -27 -11 -17 -22 -22 -40 -18 -14 2 -25 7 -25 11 0 4 -42 8
-93 9 -51 1 -108 6 -126 12 -19 5 -38 7 -42 4 -13 -8 -11 20 3 34 7 7 17 8 27
2 9 -4 52 -11 96 -13z m253 -40 c5 -24 -15 -21 -21 4 -3 13 -1 19 6 16 7 -2
13 -11 15 -20z m32 -7 c0 -11 -4 -20 -8 -20 -4 0 -8 9 -9 20 -1 11 2 20 8 20
5 0 9 -9 9 -20z m-517 -191 c56 -15 42 -34 -24 -34 -58 1 -148 11 -155 18 -3
2 -2 11 1 19 6 16 110 14 178 -3z m138 -9 c13 0 19 -7 19 -21 0 -20 -4 -21
-46 -16 -50 5 -70 18 -59 37 5 7 19 10 37 6 17 -3 39 -6 49 -6z m294 -27 c61
-3 115 -9 120 -13 6 -5 39 -7 74 -5 62 3 63 3 42 -16 -23 -21 -97 -24 -105 -4
-6 17 -46 26 -46 11 0 -9 -26 -12 -95 -10 -87 1 -155 16 -155 34 0 14 15 21
35 15 11 -3 70 -9 130 -12z m285 -50 c0 -7 -4 -13 -10 -13 -5 0 -10 12 -10 28
0 21 2 24 10 12 5 -8 10 -21 10 -27z m30 -12 c0 -21 -13 -4 -17 22 -2 17 -1
19 7 7 5 -8 10 -21 10 -29z m-700 -77 c30 -2 63 -3 73 -3 9 -1 17 -8 17 -16 0
-8 -3 -14 -7 -14 -5 1 -10 0 -13 -1 -3 -2 -39 -4 -80 -6 -97 -4 -160 11 -160
38 0 19 4 20 58 13 31 -5 82 -9 112 -11z m233 -20 c4 -4 37 -7 74 -7 38 1 73
-3 78 -7 6 -4 42 -7 80 -6 83 3 90 1 67 -22 -13 -13 -30 -17 -67 -14 -28 2
-57 6 -65 9 -8 3 -59 7 -113 8 -94 1 -127 11 -113 34 8 12 49 15 59 5z m350
-38 c6 -16 -2 -28 -14 -20 -12 7 -11 34 0 34 5 0 11 -6 14 -14z m37 -28 c0 -5
-4 -8 -10 -8 -5 0 -10 10 -10 23 0 18 2 19 10 7 5 -8 10 -18 10 -22z m-645
-192 c18 -13 18 -14 -2 -24 -31 -17 -101 7 -87 29 8 14 68 11 89 -5z m196 -12
c5 -3 9 -10 9 -16 0 -6 -26 -9 -75 -6 -78 5 -91 9 -81 27 7 10 129 6 147 -5z
m221 -9 c39 -2 66 -9 77 -20 15 -15 10 -16 -71 -12 -48 2 -90 6 -93 9 -9 9 6
38 16 32 6 -3 37 -7 71 -9z m-365 -247 c42 -15 37 -32 -11 -36 -44 -4 -72 13
-55 34 14 17 23 17 66 2z m298 -10 c103 -2 135 -7 154 -20 l24 -17 -27 -12
c-20 -9 -35 -10 -64 -1 -23 8 -38 8 -40 2 -5 -15 -100 -12 -132 5 -19 10 -43
13 -72 9 -24 -3 -56 -1 -73 6 -29 11 -30 12 -10 26 14 11 34 14 65 10 25 -3
104 -7 175 -8z m404 -43 c8 -8 12 -17 9 -20 -10 -10 -130 -7 -140 3 -6 6 -22
7 -39 2 -23 -7 -31 -5 -39 10 -14 26 0 29 105 24 60 -3 95 -10 104 -19z m227
-11 c6 -8 16 -14 23 -14 6 0 11 -5 11 -11 0 -7 -9 -9 -27 -3 -16 4 -44 8 -63
9 -94 4 -100 5 -100 19 0 8 6 16 13 19 25 9 132 -6 143 -19z m94 -4 c0 -11 -4
-20 -10 -20 -5 0 -10 9 -10 20 0 11 5 20 10 20 6 0 10 -9 10 -20z m-910 -33
c0 -5 20 -5 43 -2 24 4 59 3 78 -2 19 -6 46 -6 61 -2 16 4 30 3 34 -2 3 -5 42
-8 87 -7 45 2 132 -1 192 -6 101 -8 131 -18 119 -38 -6 -9 -322 0 -338 10 -6
3 -64 7 -129 8 -65 1 -123 6 -128 11 -7 7 -24 7 -50 0 -44 -11 -66 0 -56 28 5
11 17 15 47 13 22 -2 40 -7 40 -11z m870 -63 c0 -18 -12 -24 -29 -14 -10 5
-23 5 -31 0 -8 -5 -19 -6 -25 -2 -5 4 -25 7 -44 7 -19 0 -36 6 -39 13 -3 10
15 12 82 10 54 -2 86 -7 86 -14z m172 2 c17 5 35 -13 23 -24 -3 -3 -10 -1 -14
7 -6 9 -10 6 -15 -11 -4 -14 -9 -18 -13 -10 -2 6 -20 12 -38 12 -34 0 -51 12
-41 29 4 5 22 5 43 0 21 -4 45 -6 55 -3z m88 -17 c0 -11 -4 -17 -10 -14 -5 3
-10 15 -10 26 0 11 5 17 10 14 6 -3 10 -15 10 -26z m-784 -40 c35 -29 -44 -41
-81 -13 -17 13 -18 16 -5 25 17 11 67 4 86 -12z m244 -3 c18 -1 25 -7 25 -21
0 -22 2 -21 -108 -13 -63 5 -93 22 -67 38 8 5 40 7 70 4 30 -4 66 -7 80 -8z
m198 -24 c-4 -19 -55 -29 -70 -14 -17 17 -1 29 37 30 29 1 36 -2 33 -16z m147
3 c47 -2 61 -6 63 -19 3 -13 -6 -16 -52 -16 -61 0 -106 16 -106 38 0 10 5 12
18 7 9 -4 44 -9 77 -10z m168 -9 c22 0 22 -22 1 -30 -20 -8 -56 2 -66 17 -11
18 2 28 25 21 12 -4 30 -8 40 -8z m77 -6 c0 -5 16 -7 35 -5 28 4 35 2 35 -13
1 -16 1 -16 11 1 9 15 13 16 27 5 12 -10 14 -10 8 0 -4 6 -2 12 3 12 6 0 11
-4 11 -9 0 -5 9 -7 20 -4 15 4 20 0 20 -16 0 -14 -5 -19 -15 -15 -8 3 -40 7
-72 8 -32 2 -63 4 -70 5 -16 1 -38 41 -23 41 5 0 10 -4 10 -10z m294 -35 c6
-23 5 -27 -5 -18 -6 6 -17 9 -24 7 -7 -3 -15 3 -19 12 -8 21 2 33 13 15 6 -10
10 -9 15 5 8 21 11 17 20 -21z m26 7 c0 -11 3 -13 8 -6 11 17 62 15 55 -2 -3
-8 0 -14 6 -14 6 0 11 7 11 16 0 14 3 14 15 4 28 -23 16 -32 -37 -26 -33 4
-58 12 -65 23 -15 20 -17 37 -3 28 6 -3 10 -14 10 -23z m140 -14 c0 17 30 15
30 -3 0 -20 -46 -20 -54 1 -11 30 -5 39 9 14 8 -14 14 -19 15 -12z m53 -14
c-7 -18 -9 -16 -17 21 -6 28 -5 29 8 12 8 -11 12 -25 9 -33z m27 26 c0 -5 -2
-10 -4 -10 -3 0 -8 5 -11 10 -3 6 -1 10 4 10 6 0 11 -4 11 -10z m70 -40 c0 -5
-2 -10 -4 -10 -3 0 -8 5 -11 10 -3 6 -1 10 4 10 6 0 11 -4 11 -10z m-1760
-354 c0 -8 6 -17 13 -20 6 -3 -1 -4 -18 -3 -35 2 -50 37 -16 37 12 0 21 -6 21
-14z m188 2 c16 -16 15 -25 -5 -32 -18 -7 -83 11 -83 23 0 23 67 30 88 9z
m151 6 c65 -13 23 -49 -49 -42 -41 4 -49 21 -18 36 29 13 29 13 67 6z m139
-26 c-7 -19 -38 -22 -38 -4 0 10 9 16 21 16 12 0 19 -5 17 -12z m350 -11 c4
-21 -28 -29 -93 -22 -27 3 -65 5 -83 5 -41 -1 -56 8 -43 23 6 8 46 12 113 11
87 0 103 -3 106 -17z m105 -18 c-13 -13 -73 -2 -73 13 0 6 3 9 6 6 3 -3 17 -2
32 2 31 8 52 -4 35 -21z m-865 -252 c2 -12 -3 -17 -17 -17 -12 0 -21 6 -21 13
0 31 32 34 38 4z m186 7 c9 -8 14 -20 11 -25 -8 -13 -52 -11 -77 2 -21 11 -21
12 -3 25 25 18 50 18 69 -2z m166 -11 c9 -8 -26 -23 -57 -23 -36 0 -43 13 -15
29 15 9 59 5 72 -6z m130 -2 c0 -14 -18 -23 -30 -16 -6 4 -8 11 -5 16 8 12 35
12 35 0z"/>
<path d="M2970 2676 c0 -8 -8 -17 -17 -19 -14 -4 -12 -5 5 -6 16 -1 22 5 22
19 0 11 -2 20 -5 20 -3 0 -5 -6 -5 -14z"/>
</g>
</svg>
