<?xml version="1.0"?>
<svg width="96.00000000000001" height="26" xmlns="http://www.w3.org/2000/svg" xmlns:svg="http://www.w3.org/2000/svg">
 <title>Drawing</title>
 <g class="layer">
  <title>Layer 1</title>
  <ellipse cx="386.67" cy="132" fill="#fff" id="svg_13" stroke="#000"/>
  <g id="svg_14">
   <g id="svg_6" transform="matrix(1 0 0 1 0 0) matrix(0.187769 -0.00144948 0.00151556 0.179581 -0.106107 0.898776)">
    <g id="svg_3" stroke-width="0"/>
    <g id="svg_2" stroke-linecap="round" stroke-linejoin="round"/>
    <g id="svg_1">
     <path d="m112.39,64.06l-101.11,0.08l0,30.65c0,18.78 19.18,34.06 42.74,34.06l15.63,0c23.56,0 42.74,-15.28 42.74,-34.06l0,-30.73l0,0zm3.13,30.73c0,20.19 -20.54,36.55 -45.87,36.55l-15.63,0c-25.33,0 -45.87,-16.36 -45.87,-36.55l0,-33.14l107.37,-0.08l0,33.22l0,0z" fill="#d60000" id="svg_7"/>
     <path d="m57.67,29.59l8.33,0c2.92,0 5.22,1.82 5.22,4.15l0,8.31c0,2.32 -2.3,4.15 -5.22,4.15l-8.33,0c-2.92,0 -5.22,-1.83 -5.22,-4.15l0,-8.31c0,-2.33 2.3,-4.15 5.22,-4.15z" fill="#d60000" id="svg_8"/>
     <path d="m57.14,13.39l0,12.46l-4.69,0c-1.98,0 -3.64,1.33 -3.64,2.91l0,18.27c0,1.58 1.66,2.91 3.64,2.91l4.69,0l0,8.64l-48.99,0l0,-8.64c0,-20.19 20.54,-36.55 45.87,-36.55l3.12,0l0,0zm-45.86,36.55l0,6.14l42.74,0l0,-3.65l-1.57,0c-3.75,0 -6.77,-2.41 -6.77,-5.4l0,-18.27c0,-2.99 3.02,-5.4 6.77,-5.4l1.57,0l0,-7.48c-23.56,0 -42.74,15.28 -42.74,34.06zm58.37,-26.58l1.57,0c3.75,0 6.77,2.41 6.77,5.4l0,18.27c0,2.99 -3.02,5.4 -6.77,5.4l-1.57,0l0,3.65l42.74,0l0,-6.14c0,-18.78 -19.18,-34.06 -42.74,-34.06l0,7.48zm0,-9.97c25.33,0 45.87,16.36 45.87,36.55l0,8.64l-48.99,0l0,-8.64l4.69,0c1.98,0 3.65,-1.33 3.65,-2.91l0,-18.27c0,-1.58 -1.67,-2.91 -3.65,-2.91l-4.69,0l0,-12.46l3.12,0l0,0z" fill="#d60000" id="svg_9"/>
     <path d="m57.67,30.83c-1.99,0 -3.65,1.33 -3.65,2.91l0,8.31c0,1.57 1.66,2.9 3.65,2.9l8.33,0c1.99,0 3.65,-1.33 3.65,-2.9l0,-8.31c0,-1.58 -1.66,-2.91 -3.65,-2.91l-8.33,0zm0,-2.49l8.33,0c3.76,0 6.78,2.41 6.78,5.4l0,8.31c0,2.99 -3.02,5.4 -6.78,5.4l-8.33,0c-3.76,0 -6.78,-2.41 -6.78,-5.4l0,-8.31c0,-2.99 3.02,-5.4 6.78,-5.4z" fill="#d60000" id="svg_10"/>
     <path d="m37.34,-4.89c0,3.91 1.98,6.9 5.84,8.81c1.56,0.75 3.12,1.25 5,1.66c1.04,0.25 1.67,0.33 3.65,0.58c2.71,0.42 3.75,0.67 4.58,1.16c2.51,1.5 3.34,3.24 2.82,5.65c-0.31,1.33 0.83,2.66 2.61,2.91c1.66,0.25 3.33,-0.66 3.64,-2.08c0.84,-4.23 -0.93,-7.8 -5.21,-10.46c-1.87,-1.17 -3.65,-1.58 -7.3,-2.08c-1.77,-0.25 -2.29,-0.33 -3.12,-0.5c-1.36,-0.25 -2.4,-0.58 -3.23,-1.08c-1.88,-0.91 -2.82,-2.41 -2.82,-4.65c0,-1.41 -1.46,-2.49 -3.13,-2.49c-1.98,0.08 -3.33,1.25 -3.33,2.57l0,0z" fill="#d60000" id="svg_11"/>
    </g>
   </g>
   <text fill="#000000" font-family="&#x27;JetBrains Mono&#x27;" font-size="88" id="svg_15" stroke="#000" stroke-width="0" text-anchor="middle" transform="matrix(0.210161 0 0 0.194584 156.368 34.2128)" x="-460.54" xml:space="preserve" y="-72.7">Jeedev</text>
  </g>
 </g>
</svg>